# xmcd
#
# Track frame offsets:
#	183
#	23840
#	38228
#	51828
#	64313
#	76233
#	88925
#	100605
#	119828
#	134163
#	150245
#	163048
#	176165
#	188443
#	201848
#	213138
#	224555
#	236320
#	247838
#	262273
#
# Disc length: 3710 seconds
#
# Revision: 1
# Processed by: cddbd v1.5.1PL0 Copyright (c) Steve Scherf et al.
# Submitted via: audiograbber 1.83.01
#
DISCID=1d0e7c14
DTITLE=Various Artist - Country Hits CD2
DYEAR=1993
DGENRE=Country
TTITLE0=Dolly Parton - Green Green Grass Of Home
TTITLE1=Don Williams - Amanda
TTITLE2=L.Lynn/C.Twitty - Feelings
TTITLE3=Jim Reeves - I Love You Because
TTITLE4=Willie Nelson - Funny How Time Slipps Away
TTITLE5=Bobby Bare - Detroit City
TTITLE6=Skeeter Davis - End Off The World
TTITLE7=Ronnie Milsap - Since I Don't Have You
TTITLE8=Clint Black - Where Are You Now
TTITLE9=Alabama - Feels So Right
TTITLE10=Tanya Tucker - San Antonio Stroll
TTITLE11=Jimmy Davis - Green Green Grass Off Home
TTITLE12=Freddy Fender - Wasted Days And Wasted Nights
TTITLE13=Willy Nelson - I Love You Because
TTITLE14=Don Gibson - Oh Lonesome Me
TTITLE15=Waylon Jennings - Ladies Love Outlaws
TTITLE16=Kenny Rogers - A Poem For My Little Lady
TTITLE17=J.Reeves/D.West - Love Is No Excuse
TTITLE18=Everly Brothers - A Brand New Tenesse Waltz
TTITLE19=Dolly Parton - Heartbreaker
EXTD=
EXTT0=
EXTT1=
EXTT2=
EXTT3=
EXTT4=
EXTT5=
EXTT6=
EXTT7=
EXTT8=
EXTT9=
EXTT10=
EXTT11=
EXTT12=
EXTT13=
EXTT14=
EXTT15=
EXTT16=
EXTT17=
EXTT18=
EXTT19=
PLAYORDER=
